<?xml version="1.0" standalone="no"?><!DOCTYPE svg PUBLIC "-//W3C//DTD SVG 1.1//EN" "http://www.w3.org/Graphics/SVG/1.1/DTD/svg11.dtd"><svg t="1690805938477" class="icon" viewBox="0 0 1024 1024" version="1.1" xmlns="http://www.w3.org/2000/svg" p-id="8909" xmlns:xlink="http://www.w3.org/1999/xlink" width="200" height="200"><path d="M868.173913 261.565217H155.826087c-40.069565 0-72.347826-32.278261-72.347826-72.347826s32.278261-72.347826 72.347826-72.347826h712.347826c40.069565 0 72.347826 32.278261 72.347826 72.347826s-32.278261 72.347826-72.347826 72.347826zM940.521739 512c0-40.069565-32.278261-72.347826-72.347826-72.347826H155.826087c-40.069565 0-72.347826 32.278261-72.347826 72.347826s32.278261 72.347826 72.347826 72.347826h712.347826c40.069565 0 72.347826-32.278261 72.347826-72.347826z m0 322.782609c0-40.069565-32.278261-72.347826-72.347826-72.347826H155.826087c-40.069565 0-72.347826 32.278261-72.347826 72.347826s32.278261 72.347826 72.347826 72.347826h712.347826c40.069565 0 72.347826-32.278261 72.347826-72.347826z" p-id="8910"></path></svg>