<?xml version="1.0" standalone="no"?><!DOCTYPE svg PUBLIC "-//W3C//DTD SVG 1.1//EN" "http://www.w3.org/Graphics/SVG/1.1/DTD/svg11.dtd"><svg t="1690805872147" class="icon" viewBox="0 0 1024 1024" version="1.1" xmlns="http://www.w3.org/2000/svg" p-id="5175" xmlns:xlink="http://www.w3.org/1999/xlink" width="200" height="200"><path d="M772.1 107H328L154 283.2v507.3c0 43.9 35.1 86.4 79.1 86.4h539c43.9 0 84.9-42.5 84.9-86.4V188.2c0-44-41-81.2-84.9-81.2z" fill="#FFFFFF" p-id="5176"></path><path d="M772.1 884h-539c-46.6 0-87.1-43.2-87.1-93.4V283.2c0-2.2 0.7-4.4 2.2-5.9l173.9-176c1.6-1.6 3.7-2.3 5.9-2.3h444.1c49.1 0 91.9 41.4 91.9 89.2v602.4c0 49.4-43.6 93.4-91.9 93.4zM163 286.7v503.9c0 41.3 32.5 77.4 70.1 77.4h539c38.7 0 75.9-37.6 75.9-77.4V188.2c0-38.7-35.8-74.2-75.9-74.2H331.6L163 286.7z" fill="#282828" p-id="5177"></path><path d="M304.6 151H721c37.2 0 67.6 30.4 67.6 67.6V764c0 37.2-30.4 67.6-67.6 67.6H251.7c-37.2 0-67.6-30.4-67.6-67.6V283.1" fill="#50BCFF" p-id="5178"></path><path d="M909.4 787c0 90.1-73 163.1-163.1 163.1s-163.1-73-163.1-163.1 73-163.1 163.1-163.1 163.1 73 163.1 163.1z" fill="#1A6DFF" p-id="5179"></path><path d="M746.3 958.6c-94.6 0-171.5-77-171.5-171.6s77-171.5 171.5-171.5c94.6 0 171.5 77 171.5 171.5 0.1 94.6-76.9 171.6-171.5 171.6z m0-326.2c-85.3 0-154.6 69.4-154.6 154.6 0 85.3 69.4 154.6 154.6 154.6 85.3 0 154.6-69.4 154.6-154.6 0.1-85.3-69.3-154.6-154.6-154.6z" fill="#282828" p-id="5180"></path><path d="M801.1 705.6c3-3 3-7.9 0-10.9s-7.8-3-10.8 0l-44 44-44-44c-3-3-7.8-3-10.8 0-3 3-3 7.8 0 10.9l43.5 43.5h-49.3c-4.2 0-7.7 3.4-7.7 7.7 0 4.2 3.4 7.7 7.7 7.7h53V787c0 4.2 3.4 7.7 7.7 7.7 4.3 0 7.7-3.4 7.7-7.7v-30.3c0-1.1-0.3-2.2-0.7-3.2l47.7-47.9z" fill="#FFFFFF" p-id="5181"></path><path d="M764.9 756.7c0 4.2 3.4 7.7 7.7 7.7h41.7c4.2 0 7.7-3.4 7.7-7.7 0-4.2-3.4-7.7-7.7-7.7h-41.7c-4.3 0-7.7 3.4-7.7 7.7zM814.3 799.5h-41.7c-4.2 0-7.7 3.4-7.7 7.7 0 4.2 3.4 7.7 7.7 7.7h41.7c4.2 0 7.7-3.4 7.7-7.7-0.1-4.3-3.5-7.7-7.7-7.7zM746.2 799.5h-60.7c-4.2 0-7.7 3.4-7.7 7.7 0 4.2 3.4 7.7 7.7 7.7h53V874c0 4.2 3.4 7.7 7.7 7.7 4.3 0 7.7-3.4 7.7-7.7v-66.8c0-4.3-3.4-7.7-7.7-7.7z" fill="#FFFFFF" p-id="5182"></path><path d="M687.5 390.8H313.1c-4.7 0-8.5-3.8-8.5-8.5s3.8-8.5 8.5-8.5h374.4c4.7 0 8.5 3.8 8.5 8.5s-3.8 8.5-8.5 8.5z" fill="#282828" p-id="5183"></path><path d="M689 390.8c-2.2 0-4.3-0.8-6-2.5l-91.4-91.4c-3.3-3.3-3.3-8.7 0-12 3.3-3.3 8.7-3.3 12 0l91.4 91.4c3.3 3.3 3.3 8.7 0 12-1.7 1.6-3.8 2.5-6 2.5zM689 516H314.6c-4.7 0-8.5-3.8-8.5-8.5s3.8-8.5 8.5-8.5H689c4.7 0 8.5 3.8 8.5 8.5s-3.8 8.5-8.5 8.5z" fill="#282828" p-id="5184"></path><path d="M404.5 607.4c-2.2 0-4.3-0.8-6-2.5l-91.4-91.4c-3.3-3.3-3.3-8.7 0-12 3.3-3.3 8.7-3.3 12 0l91.4 91.4c3.3 3.3 3.3 8.7 0 12-1.7 1.7-3.9 2.5-6 2.5z" fill="#282828" p-id="5185"></path><path d="M146.6 283.2l104.6 1.3c41.9 0 75.1-21.8 76.9-76.1-0.5-55 0-101.5 0-101.5L146.6 283.2z" fill="#1A6DFF" p-id="5186"></path><path d="M251.2 293l-104.7-1.3c-3.4 0-6.5-2.1-7.7-5.3-1.3-3.2-0.5-6.8 2-9.2l181.5-176.3c2.5-2.4 6.1-3.1 9.2-1.7 3.1 1.3 5.2 4.4 5.1 7.9 0 0.5-0.5 47 0 101.3-1.9 53.9-32.9 84.6-85.4 84.6z m-84-18l84.1 1.1c30.1 0 66.5-11.8 68.3-67.9-0.3-32.5-0.2-62.3-0.1-81.1L167.2 275z" fill="#282828" p-id="5187"></path></svg>